<svg xmlns="http://www.w3.org/2000/svg" xmlns:xlink="http://www.w3.org/1999/xlink" width="457.347" height="391.898" viewBox="0 0 457.347 391.898">
  <defs>
    <linearGradient id="linear-gradient" x1="-129.749" y1="28.944" x2="-130.499" y2="31.054" gradientUnits="objectBoundingBox">
      <stop offset="0" stop-color="#cb236d"/>
      <stop offset="1" stop-color="#4c246d"/>
    </linearGradient>
    <linearGradient id="linear-gradient-2" x1="-497.959" y1="106.887" x2="-500.833" y2="114.749" xlink:href="#linear-gradient"/>
    <linearGradient id="linear-gradient-3" x1="-275.965" y1="80.074" x2="-277.558" y2="86.003" xlink:href="#linear-gradient"/>
  </defs>
  <g id="Attendance_Hero" data-name="Attendance Hero" transform="translate(-1085.08 -206.615)">
    <g id="Group_118" data-name="Group 118" transform="translate(1110.418 207.065)">
      <path id="Path_52" data-name="Path 52" d="M446.948,207.714c-1.126,0-4.022-.161-8.2-.483a217,217,0,0,1-83.487-22.842c-22.038-11.1-51.315-15.764-67.24-11.582h-.161a10.756,10.756,0,0,1-13.191-7.721c-3.7-13.673-22.038-23.486-41.341-23.486-23.164,0-41.824,13.03-41.824,28.955,0,6.756,3.378,13.03,9.008,17.856,15.925,13.995,24.773,34.424,22.842,55.658a56.835,56.835,0,0,0,.8,16.569,40.9,40.9,0,0,0,2.252,7.56c6.113,15.6,30.081,34.746,31.529,49.224C269.2,429.06,298.473,469.6,405.928,485.522c107.295,15.925,203.651-33.459,214.911-110.351C632.1,298.6,613.762,209.966,446.948,207.714Z" transform="translate(-191.5 -118.114)" fill="#e1f3ff"/>
      <path id="Path_53" data-name="Path 53" d="M281.8,135.365a9.125,9.125,0,0,1-5.791-2.9A18.91,18.91,0,0,0,262.334,127c-9.652,0-17.534,6.6-17.534,14.638s7.882,14.638,17.534,14.638a19.353,19.353,0,0,0,12.225-4.182,7.877,7.877,0,0,1,5.63-1.448,7.638,7.638,0,0,0,8.365-7.561A7.818,7.818,0,0,0,281.8,135.365Z" transform="translate(-81.061 -81)" fill="#e1f3ff"/>
      <path id="Path_54" data-name="Path 54" d="M285.86,151.382c0,2.252-2.574,4.182-5.63,4.182-3.217,0-5.63-1.769-5.63-4.182,0-2.252,2.574-4.182,5.63-4.182C283.447,147.2,285.86,149.13,285.86,151.382Z" transform="translate(-140.924 -114.706)" fill="#e1f3ff"/>
      <path id="Path_55" data-name="Path 55" d="M427.529,182.239c0,4.022-5.469,7.239-12.065,7.239S403.4,186.26,403.4,182.239,408.869,175,415.465,175C422.221,175,427.529,178.217,427.529,182.239Z" transform="translate(-72.534 -97.786)" fill="#e1f3ff"/>
      <path id="Path_56" data-name="Path 56" d="M427.8,172.9a3.7,3.7,0,1,1-3.7-3.7A3.742,3.742,0,0,1,427.8,172.9Z" transform="translate(-62.188 -101.316)" fill="#e1f3ff"/>
    </g>
    <path id="Path_3258" data-name="Path 3258" d="M1548.682,514.926c-1.285-.887-2.235-.621-3.537-.151a9.134,9.134,0,0,0-3.16,2.271l-62.74,63.6-20.518-19.057a2.561,2.561,0,0,0-3.717.115l-20.1,20.645h2.333c-1.637,0-3.087,4.436-1.441,4.436l.2,1.925c.7,0,1.376.63,1.916.08L1457,569.17l21.287,19.732a2.6,2.6,0,0,0,2.35.683,3.065,3.065,0,0,0,1.989-1.686l61.987-62.1c2.8-3.043,4.52-5.323,4.79-6.938C1549.926,515.626,1549.68,515.76,1548.682,514.926Z" transform="translate(-38.729 -38.235)" fill="#e1f3ff"/>
    <g id="Plant" transform="translate(1085.08 206.616)">
      <path id="Path_3259" data-name="Path 3259" d="M1146,454.19a237.5,237.5,0,0,1,13.37,36.056,379.237,379.237,0,0,1,8.81,37.511l1.544,9.511c.55,3.167.967,6.361,1.348,9.547l1.18,9.582.887,9.609.426,4.8.257,4.818.5,9.644c.249,6.432.213,12.865.328,19.306l-3.655-.062c0-6.388.222-12.776.133-19.164l-.266-9.573-.142-4.791-.311-4.782-.621-9.573-.949-9.537c-.3-3.185-.639-6.37-1.109-9.529l-1.322-9.5a379.555,379.555,0,0,0-7.887-37.564A249.174,249.174,0,0,0,1146,454.19Z" transform="translate(-1091.951 -239.103)" fill="#00aeef" opacity="0.7"/>
      <path id="Path_3260" data-name="Path 3260" d="M1085.08,334.16s43.163,24.567,61.377,47.421,18.214,84.471,18.214,93.459c0,0-21.506-68.936-35.347-79.61S1093.127,367.626,1085.08,334.16Z" transform="translate(-1085.08 -225.565)" fill="#00aeef" opacity="0.7"/>
      <path id="Path_3261" data-name="Path 3261" d="M1104.709,357.12c4.711,3.008,9.262,6.21,13.716,9.644s8.872,6.84,13.007,10.647a90.627,90.627,0,0,1,11.667,12.572,35.166,35.166,0,0,1,2.413,3.78c.39.648.683,1.393,1.02,2.1l.816,1.916,3.274,7.692a296.8,296.8,0,0,1,18.259,64.766,301.554,301.554,0,0,1,3.948,33.448c.834,11.17,1.091,22.349,1.313,33.51q.559,33.475-1.411,66.887h-.355q.408-33.386-.781-66.789c-.444-11.126-1.047-22.242-1.952-33.332a326.679,326.679,0,0,0-4.241-33.093c-3.922-21.9-9.475-43.535-17.664-64.252l-3.025-7.781a29.84,29.84,0,0,0-3.744-7.364,88.926,88.926,0,0,0-10.939-12.527,263.226,263.226,0,0,0-25.49-21.506Z" transform="translate(-1087.275 -228.155)" fill="#e1f3ff"/>
      <path id="Path_3262" data-name="Path 3262" d="M1201.545,340.475s-20.122,26.155-20.459,55.007-6.37,66.328-4.693,83.469c0,0,11.4-55.069,18.108-70.445s43.012-88.819,76.167-99.217C1270.668,309.281,1227.363,309.618,1201.545,340.475Z" transform="translate(-1095.346 -222.76)" fill="#00aeef" opacity="0.6"/>
      <path id="Path_3263" data-name="Path 3263" d="M1239.843,324.4a67.65,67.65,0,0,0-17.141,13.61,104.022,104.022,0,0,0-13.14,17.416c-7.852,12.359-12.119,26.368-15.97,40.528q-2.848,10.647-5.2,21.4c-1.65,7.16-3.087,14.373-4.551,21.577s-2.839,14.444-4.17,21.692-2.662,14.488-3.993,21.746q1.713-22.065,5.323-43.952c2.351-14.577,5.27-29.083,9.067-43.4a220.81,220.81,0,0,1,6.8-21.213,112.338,112.338,0,0,1,4.6-10.247l2.741-4.871c.887-1.624,1.987-3.158,2.972-4.747a96.176,96.176,0,0,1,14.275-17.15C1226.943,331.808,1232.923,327.168,1239.843,324.4Z" transform="translate(-1095.298 -224.465)" fill="#e1f3ff"/>
      <path id="Path_3264" data-name="Path 3264" d="M1145.8,239.476c-5.714,9.387-8.322,23.706-3.265,43.828s24.283,72.441,24.735,91.214c0,0,4.019-51.458,0-79.592s1.42-70.205,4.738-83.167C1172.01,211.76,1150.771,231.341,1145.8,239.476Z" transform="translate(-1091.256 -211.76)" fill="#00aeef" opacity="0.8"/>
      <path id="Path_3265" data-name="Path 3265" d="M1162.416,231.41a61.944,61.944,0,0,0-8.056,28.045,66,66,0,0,0,.887,14.55c.133,1.207.488,2.378.727,3.549s.488,2.36.807,3.549c.6,2.4,1.233,4.809,1.775,7.231a498.709,498.709,0,0,1,9.91,58.654c1.038,9.875,1.775,19.785,1.979,29.757s.506,19.732.8,29.606q1.056,29.633,1.819,59.319-2.848-29.562-4.667-59.186-.949-14.808-1.411-29.677c-.275-9.8-1.056-19.634-2.156-29.429s-2.342-19.572-3.842-29.278-3.247-19.457-5.2-29.118c-.479-2.413-1.038-4.818-1.561-7.222s-1.047-4.915-1.34-7.408a66.554,66.554,0,0,1-.266-15.029,63.5,63.5,0,0,1,3.2-14.612,52.816,52.816,0,0,1,6.592-13.3Z" transform="translate(-1092.664 -213.976)" fill="#e1f3ff"/>
      <path id="Path_3266" data-name="Path 3266" d="M1187.028,545.69q-.488,15.411-.115,30.822c.248,10.265.8,20.512,1.934,30.653l-3.638.31c-.541-10.354-.479-20.672-.124-30.972S1186.088,555.928,1187.028,545.69Z" transform="translate(-1096.328 -249.423)" fill="#00aeef" opacity="0.7"/>
      <path id="Path_3267" data-name="Path 3267" d="M1192.877,646.765h-30.431a4.941,4.941,0,0,1-4.888-4.374L1154.07,614H1201.3l-3.487,28.391a4.942,4.942,0,0,1-4.933,4.374Z" transform="translate(-1092.861 -257.128)" fill="#5968f6"/>
      <rect id="Rectangle_3788" data-name="Rectangle 3788" width="53.747" height="15.42" rx="2.63" transform="translate(58.059 347.166)" fill="#5968f6"/>
      <path id="Rectangle_21" data-name="Rectangle 21" d="M1199.032,633.767h-42.551l-1.641-13.317h45.824l-1.633,13.317" transform="translate(-1092.948 -257.856)" fill="#e1f3ff"/>
    </g>
    <g id="Group_26845" data-name="Group 26845" transform="translate(-926.49 -579.674)">
      <g id="Group_26830" data-name="Group 26830" transform="translate(2042.953 903.536)">
        <rect id="Rectangle_6448" data-name="Rectangle 6448" width="228.209" height="159.758" rx="18" transform="translate(0.678 0.678)" fill="#5968f6"/>
        <path id="Path_72109" data-name="Path 72109" d="M2254.5,1064.649H2060.97a18.038,18.038,0,0,1-18.017-18.018V921.554a18.038,18.038,0,0,1,18.017-18.018H2254.5a18.038,18.038,0,0,1,18.018,18.018v125.078A18.038,18.038,0,0,1,2254.5,1064.649ZM2060.97,904.892a16.681,16.681,0,0,0-16.662,16.662v125.078a16.68,16.68,0,0,0,16.662,16.662H2254.5a16.68,16.68,0,0,0,16.662-16.662V921.554a16.681,16.681,0,0,0-16.662-16.662Z" transform="translate(-2042.953 -903.536)" fill="#fff"/>
      </g>
      <g id="Group_26831" data-name="Group 26831" transform="translate(2148.818 912.772)">
        <rect id="Rectangle_6449" data-name="Rectangle 6449" width="106.702" height="76.394" rx="9" transform="translate(0.339 0.339)" fill="#e1f3ff"/>
        <path id="Path_72110" data-name="Path 72110" d="M2297.3,994.233h-88.967a9.217,9.217,0,0,1-9.207-9.207V926.368a9.217,9.217,0,0,1,9.207-9.207H2297.3a9.217,9.217,0,0,1,9.207,9.207v58.658A9.217,9.217,0,0,1,2297.3,994.233Zm-88.967-76.394a8.539,8.539,0,0,0-8.529,8.529v58.658a8.538,8.538,0,0,0,8.529,8.529H2297.3a8.538,8.538,0,0,0,8.529-8.529V926.368a8.539,8.539,0,0,0-8.529-8.529Z" transform="translate(-2199.128 -917.161)" fill="#fff"/>
      </g>
      <rect id="Rectangle_6450" data-name="Rectangle 6450" width="57.363" height="60.818" rx="10.672" transform="translate(2062.049 917.021)" fill="#1e2d64"/>
      <rect id="Rectangle_6451" data-name="Rectangle 6451" width="48.925" height="51.86" rx="12.841" transform="translate(2065.599 922.705)" fill="#6e83ff"/>
      <g id="Group_26832" data-name="Group 26832" transform="translate(2175.421 920.052)">
        <circle id="Ellipse_1587" data-name="Ellipse 1587" cx="27.356" cy="27.356" r="27.356" transform="translate(0 54.054) rotate(-81.107)" fill="#5968f6"/>
        <path id="Path_72111" data-name="Path 72111" d="M2246.96,970.881h-.036a.678.678,0,0,1-.641-.712,26.046,26.046,0,0,1,.377-3.256.678.678,0,1,1,1.334.241,24.625,24.625,0,0,0-.357,3.086A.678.678,0,0,1,2246.96,970.881Z" transform="translate(-2240.921 -940.288)" fill="#fff"/>
        <path id="Path_72112" data-name="Path 72112" d="M2250.884,951a.669.669,0,0,1-.3-.073.677.677,0,0,1-.3-.91,25.82,25.82,0,0,1,23.163-14.262,26.188,26.188,0,0,1,4.677.421.678.678,0,0,1-.242,1.333,24.886,24.886,0,0,0-4.435-.4,24.472,24.472,0,0,0-21.953,13.516A.677.677,0,0,1,2250.884,951Z" transform="translate(-2242.186 -930.431)" fill="#fff"/>
        <circle id="Ellipse_1588" data-name="Ellipse 1588" cx="23.153" cy="23.153" r="23.153" transform="translate(8.699 8.699)" fill="#fff"/>
        <path id="Path_72113" data-name="Path 72113" d="M2289.074,958.8c0,3.92-3.179,8.153-7.1,8.153s-7.1-4.233-7.1-8.153a7.11,7.11,0,0,1,14.2,0Z" transform="translate(-2250.133 -935.695)" fill="#87d8f9"/>
        <path id="Path_72114" data-name="Path 72114" d="M2270.018,990.18h17.329a4.2,4.2,0,0,0,3.995-2.916l.933-2.914a4.191,4.191,0,0,0-2.532-5.214c-7.052-2.579-14.344-2.248-21.814.238a4.178,4.178,0,0,0-2.677,5.064l.719,2.647A4.193,4.193,0,0,0,2270.018,990.18Z" transform="translate(-2246.984 -943.83)" fill="#87d8f9"/>
      </g>
      <rect id="Rectangle_6452" data-name="Rectangle 6452" width="35.498" height="26.752" rx="7.897" transform="translate(2070.66 1019.272)" fill="#fff"/>
      <g id="Group_26833" data-name="Group 26833" transform="translate(2159.189 1000.051)">
        <rect id="Rectangle_6453" data-name="Rectangle 6453" width="19.563" height="12.26" rx="4.678" transform="translate(0 0.373)" fill="#fff"/>
        <rect id="Rectangle_6454" data-name="Rectangle 6454" width="19.563" height="12.26" rx="5.023" transform="translate(0 13.461)" fill="#fff"/>
        <rect id="Rectangle_6455" data-name="Rectangle 6455" width="19.563" height="12.26" rx="4.68" transform="translate(0 26.467)" fill="#fff"/>
        <rect id="Rectangle_6456" data-name="Rectangle 6456" width="19.563" height="12.26" rx="4.151" transform="translate(0 39.556)" fill="#fff"/>
        <rect id="Rectangle_6457" data-name="Rectangle 6457" width="19.563" height="12.26" rx="3.457" transform="translate(22.465 0.746)" fill="#fff"/>
        <rect id="Rectangle_6458" data-name="Rectangle 6458" width="19.563" height="12.26" rx="4.053" transform="translate(22.465 13.834)" fill="#fff"/>
        <path id="Rectangle_6459" data-name="Rectangle 6459" d="M4.46,0H15.1a4.459,4.459,0,0,1,4.459,4.459V7.8a4.46,4.46,0,0,1-4.46,4.46H4.459A4.459,4.459,0,0,1,0,7.8V4.46A4.46,4.46,0,0,1,4.46,0Z" transform="translate(22.465 26.84)" fill="#fff"/>
        <rect id="Rectangle_6460" data-name="Rectangle 6460" width="19.563" height="12.26" rx="4.93" transform="translate(22.465 39.929)" fill="#fff"/>
        <path id="Rectangle_6461" data-name="Rectangle 6461" d="M4.419,0H15.145a4.419,4.419,0,0,1,4.419,4.419V7.842a4.418,4.418,0,0,1-4.418,4.418H4.419A4.419,4.419,0,0,1,0,7.842V4.419A4.419,4.419,0,0,1,4.419,0Z" transform="translate(43.924 0.861)" fill="#fff"/>
        <rect id="Rectangle_6462" data-name="Rectangle 6462" width="19.563" height="12.26" rx="4.014" transform="translate(43.924 13.95)" fill="#fff"/>
        <rect id="Rectangle_6463" data-name="Rectangle 6463" width="19.563" height="12.26" rx="4.171" transform="translate(43.924 26.956)" fill="#fff"/>
        <rect id="Rectangle_6464" data-name="Rectangle 6464" width="19.563" height="12.26" rx="3.766" transform="translate(43.924 40.044)" fill="#fff"/>
        <rect id="Rectangle_6465" data-name="Rectangle 6465" width="19.563" height="12.26" rx="3.774" transform="translate(65.656)" fill="#fff"/>
        <rect id="Rectangle_6466" data-name="Rectangle 6466" width="19.563" height="12.26" rx="4.619" transform="translate(65.656 13.089)" fill="#fff"/>
        <rect id="Rectangle_6467" data-name="Rectangle 6467" width="19.563" height="12.26" rx="4.401" transform="translate(65.656 26.095)" fill="#fff"/>
        <rect id="Rectangle_6468" data-name="Rectangle 6468" width="19.563" height="12.26" rx="3.122" transform="translate(65.656 39.183)" fill="#fff"/>
      </g>
      <path id="Path_72115" data-name="Path 72115" d="M2139.991,1099.4v-14.861a1.124,1.124,0,0,1,1.887-.826l8.812,8.133a1.124,1.124,0,0,1-.08,1.72l-8.812,6.729A1.125,1.125,0,0,1,2139.991,1099.4Z" transform="translate(-31.26 -57.944)" fill="#00aeef"/>
      <path id="Path_72116" data-name="Path 72116" d="M2074.512,1099.4v-14.861a1.125,1.125,0,0,0-1.888-.826l-8.812,8.133a1.124,1.124,0,0,0,.08,1.72l8.812,6.729A1.125,1.125,0,0,0,2074.512,1099.4Z" transform="translate(-6.603 -57.944)" fill="#00aeef"/>
      <path id="Path_72117" data-name="Path 72117" d="M2081.515,985.875l7.777-17.95a1.021,1.021,0,0,1,.823-.613,1.761,1.761,0,0,1,.19-.01h26.358a2.907,2.907,0,0,1,1.8.525.957.957,0,0,1,.3.507l4.476,18.057a1.027,1.027,0,0,1-.984,1.274c-20.025.253-33.717-.141-39.832-.356A1.025,1.025,0,0,1,2081.515,985.875Z" transform="translate(-12.395 -20.541)" fill="#25377a"/>
    </g>
    <g id="Character_1" data-name="Character 1" transform="translate(1300.217 309.727)">
      <path id="Path_97" data-name="Path 97" d="M1465.89,624.886l2.856,11.15.562,1.133,2.085,3.018a3.3,3.3,0,0,1-.781,4.589,3.483,3.483,0,0,1-1.114.514s-4.151,1.5-8.312,2.857c-4.342,1.323-9.636.19-9.636-.952,0-2.457,2.266-.562,6.237-3.209l3.971-2.856c3.4-2.647.371-9.445-1.695-13.226-.762-1.314,0-4.761,1.5-5.094l.952-.191A3.3,3.3,0,0,1,1465.89,624.886Z" transform="translate(-1363.43 -359.956)" fill="#fab9af"/>
      <path id="Path_98" data-name="Path 98" d="M1463.472,523.4c-.752-2.076-1.5-4.151-1.9-5.094a8.386,8.386,0,0,0-1.133-1.324,9.6,9.6,0,0,1-1.695-2.457l-.571-3.6c-.19-1.695-1.323-3.018-3.018-2.637h0c-1.9.371-2.456,2.076-2.076,3.961l.372,2.647a9.142,9.142,0,0,1-.19,4.532,17.1,17.1,0,0,0,2.085,9.255c.752,1.695,3.209,2.457,6.418,3.218,1.514.371,4.161.562,2.857-1.143-.952-1.314-5.856-2.857-5.1-7.741,0-.19.19-.952.381-.952.952-.19,1.324,1.695,1.9,2.647.762,1.323,1.9,1.695,2.457,1.5C1464.824,525.664,1464.072,524.911,1463.472,523.4Z" transform="translate(-1363.497 -354.484)" fill="#fab9af"/>
      <path id="Path_99" data-name="Path 99" d="M1470.336,403.89c-5.1,15.863-17.948,45.7-37.02,56.292-12.854,7.179-44.018,17.758-44.018,17.758s-.952-1.324-1.7-2.457a10.146,10.146,0,0,1-1.143-2.857s38.734-19.843,44.019-25.708c5.1-5.665,22.48-42.5,27.775-48.17C1464.1,392.15,1473.173,395.006,1470.336,403.89Z" transform="translate(-1360.316 -349.074)" fill="#00aeef"/>
      <path id="Path_100" data-name="Path 100" d="M1456.89,480.914l12.093-86.142,33.059-4.532,17.377,89.922Z" transform="translate(-1363.685 -348.84)" fill="#fab9af"/>
      <path id="Path_101" data-name="Path 101" d="M1530.457,622.445l3.4,11.15a9.451,9.451,0,0,0,.571,1.314l2.457,3.6a4,4,0,0,1-1.085,5.561,4.547,4.547,0,0,1-.952.486s-4.761,1.695-9.636,3.209c-5.1,1.695-11.34.19-11.34-1.133,0-3.028,2.857-.571,7.37-3.809a38.911,38.911,0,0,0,4.532-3.209c3.97-3.218.571-10.959-1.9-15.492a2.675,2.675,0,0,1,1.009-3.656,2.922,2.922,0,0,1,.876-.314l1.133-.19a3.466,3.466,0,0,1,3.571,2.485Z" transform="translate(-1366.411 -359.829)" fill="#fab9af"/>
      <path id="Path_102" data-name="Path 102" d="M1492.9,486.118l-36.649-3.028s-13.035,46.475-16.434,67.251c-2.457,14.93,20.214,72.736,20.214,72.736,2.266.952,4.342-.19,6.8-.762,0,0-6.8-51-4.532-63.471,2.457-13.026,21.9-39.286,23.233-46.094A147.643,147.643,0,0,1,1492.9,486.118Z" transform="translate(-1362.86 -353.282)" fill="#5046af"/>
      <path id="Path_103" data-name="Path 103" d="M1487.357,486.41c-3.809,20.214-12.274,50.626,3.971,79.153s33.44,58.187,33.44,58.187a10.216,10.216,0,0,0,6.046-2.076s-2.857-12.854-6.989-27.965c-4.761-17.139-10.769-37.591-9.065-48.17,3.209-19.834,6.8-46.285,5.665-59.129C1519.474,473.375,1489.252,475.642,1487.357,486.41Z" transform="translate(-1364.874 -353.013)" fill="#5046af"/>
      <path id="Path_104" data-name="Path 104" d="M1457.2,482.057a2.942,2.942,0,0,1-1.695-3.4l13.6-83.886,33.059-4.542,17.758,88.6a3.019,3.019,0,0,1-2.342,3.571h-.114a215.477,215.477,0,0,1-37.591,3.6C1467.4,486.017,1460.409,483.561,1457.2,482.057Z" transform="translate(-1363.615 -348.839)" fill="#d2f0ff"/>
      <path id="Path_105" data-name="Path 105" d="M1496.525,412.371c3.971,10.959,10.388,32.5,6.8,51.417-5.094,26.661-11.9,37.4-3.209,43.638s25.128-4.151,25.708-7.56-3.209-45.9-7.36-64.223-15.873-44.752-15.873-44.752l-6.046.562C1496.335,391.214,1494.64,407.277,1496.525,412.371Z" transform="translate(-1365.539 -348.871)" fill="#00aeef"/>
      <path id="Path_106" data-name="Path 106" d="M1474.383,394.21s-2.647,11.9-.571,29.85c2.085,17.758,6.618,71.974-9.626,80.286-5.1,2.637-16.815-10.769-16.815-13.226,0-4.351,3.961-18.52,7.551-31.555,3.028-10.388,6.046-45.142,6.989-58.558a6.437,6.437,0,0,1,5.665-5.856Z" transform="translate(-1363.23 -349.03)" fill="#00aeef"/>
      <g id="Group_121" data-name="Group 121" transform="translate(97.584)">
        <path id="Path_107" data-name="Path 107" d="M1500.182,355.916a12.922,12.922,0,0,0,2.457,8.693c3.019,3.59-1.323,6.979-2.457,9.445-.952,2.457.181,6.227-2.647,7.931s-10.959,2.076-12.273-.762C1483.929,378.015,1490.917,354.211,1500.182,355.916Z" transform="translate(-1462.619 -347.194)" fill="#41378c"/>
        <path id="Path_108" data-name="Path 108" d="M1466.609,362.09c-.381,16.244,14.73,19.462,23.614,19.462s9.255-19.462,9.255-26.661c0-6.989-6.989-8.131-15.682-8.131-6.979,0-13.6,5.484-16.244,10.579C1466.609,358.691,1466.609,360.576,1466.609,362.09Z" transform="translate(-1461.734 -346.76)" fill="#41378c"/>
        <path id="Path_109" data-name="Path 109" d="M1483.15,353.34c7.37,0,10.207,5.285,10.207,14.92a21.481,21.481,0,0,1-2.856,9.636,7.454,7.454,0,0,0-.752,5.665l1.695,5.484c1.133,5.094-1.323,7.931-4.913,8.884a6.342,6.342,0,0,1-5.475-.952c-1.9-1.133-2.076-3.809-1.695-5.856l.371-1.5a3.942,3.942,0,0,0-2.695-4.875h-.133c-5.665-1.324-6.427-7.179-7.941-16.434C1467.668,358.815,1475.79,353.34,1483.15,353.34Z" transform="translate(-1461.841 -347.075)" fill="#fab9af"/>
        <path id="Path_110" data-name="Path 110" d="M1465.613,348.723l4.151,1.314a6.722,6.722,0,0,0,4.761,0l8.5-2.447c5.1,0,13.607,2.856,12.464,10.2l-.952,5.284a4.608,4.608,0,0,1-4.152,3.809h0a1.571,1.571,0,0,1-1.514,1.133,1.7,1.7,0,0,1-1.695-1.695h0a5.218,5.218,0,0,0-3.971-4.913,21.09,21.09,0,0,0-9.065,0c-5.856,1.514-12.092-2.076-12.654-8.122v-1.133C1461.642,350.037,1463.537,348.152,1465.613,348.723Z" transform="translate(-1461.49 -346.8)" fill="#41378c"/>
        <path id="Path_111" data-name="Path 111" d="M1490.42,369.01c0,2.266.752,4.151,3.028,4.151,2.076,0,3.59-3.018,3.59-5.285s-1.323-2.856-3.59-2.856C1491.363,365,1490.42,366.743,1490.42,369.01Z" transform="translate(-1462.874 -347.633)" fill="#fab9af"/>
        <path id="Path_112" data-name="Path 112" d="M1471.568,375.961a1.714,1.714,0,0,0,1.295,2.038,1.906,1.906,0,0,0,.409.048h0a1.676,1.676,0,0,0,1.695-1.514v-7.179a1.39,1.39,0,0,0-.381-.752.951.951,0,0,0-.752-.381c-.381,0-.762.19-.762.562Z" transform="translate(-1461.97 -347.787)" fill="#fa968c"/>
      </g>
      <path id="Path_113" data-name="Path 113" d="M1487.167,407.7a1.286,1.286,0,0,1,.952.752c1.133,3.6,6.227,20.214,7.36,29.289.952,7.36-2.075,20.2-3.809,26.822a10.417,10.417,0,0,1-4.761,6.237l-1.133.752a2.133,2.133,0,0,1-2.856-.752l-.752-1.9a5.265,5.265,0,0,1-.381-4.151c2.076-5.294,6.989-19.043,6.427-28.146-.19-3.209-3.218-22.852-4.161-27.765a.953.953,0,0,1,.743-1.114.713.713,0,0,1,.2,0Z" transform="translate(-1364.864 -349.675)" fill="#afe6ff"/>
      <path id="Path_114" data-name="Path 114" d="M1485.914,405.114a1.286,1.286,0,0,1,.952.752c1.133,3.6,5.856,20.4,6.8,29.517.752,7.36-2.456,20.2-4.342,26.661a10.18,10.18,0,0,1-4.761,6.046l-1.133.562a2.133,2.133,0,0,1-2.857-.752l-.952-1.695a4.609,4.609,0,0,1-.191-4.161c2.076-5.094,7.37-18.891,7.18-27.955,0-3.209-2.856-22.852-3.4-27.956a1.066,1.066,0,0,1,.952-1.143Z" transform="translate(-1364.744 -349.546)" fill="#5159bf"/>
      <path id="Path_115" data-name="Path 115" d="M1483.232,405.444h3.209a.885.885,0,0,0,.952-.838.189.189,0,0,0,0-.1v-3.218a.895.895,0,0,0-.838-.952h-.1l-2.856-.381a1.6,1.6,0,0,0-1.323,1.324v3.209a1.019,1.019,0,0,0,.962.962Z" transform="translate(-1364.899 -349.304)" fill="#5159bf"/>
      <path id="Path_116" data-name="Path 116" d="M1492.136,390l5.284.952s-1.133,8.693-5.284,15.12a.952.952,0,0,1-1.295,0h0l-3.809-5.294a1.686,1.686,0,0,1,0-2.076Z" transform="translate(-1365.11 -348.828)" fill="#fff"/>
      <path id="Path_117" data-name="Path 117" d="M1480.034,392.42l-5.285,1.7s-.19,5.285,3.961,11.521a.952.952,0,0,0,1.295,0h0l3.028-4.913a2.228,2.228,0,0,0,.181-1.9Z" transform="translate(-1364.54 -348.944)" fill="#fff"/>
      <g id="Group_26838" data-name="Group 26838" transform="matrix(0.695, 0.719, -0.719, 0.695, 45.443, 25.597)">
        <path id="Path_72136" data-name="Path 72136" d="M33.923,101.776,116.447,56a6.421,6.421,0,0,0,2.5-8.729L94.56,3.307a6.421,6.421,0,0,0-8.729-2.5L3.307,46.579a6.421,6.421,0,0,0-2.5,8.729L25.194,99.277A6.42,6.42,0,0,0,33.923,101.776Z" fill="#1e2d64"/>
        <path id="Path_72137" data-name="Path 72137" d="M28.864,96.5a7.1,7.1,0,0,1-6.211-3.65L.893,53.622a7.089,7.089,0,0,1,2.761-9.638L81.352.889a7.1,7.1,0,0,1,9.638,2.76l21.76,39.231a7.089,7.089,0,0,1-2.76,9.638l-77.7,43.1A7.042,7.042,0,0,1,28.864,96.5ZM84.781,1.337A5.714,5.714,0,0,0,82,2.058L4.3,45.152a5.753,5.753,0,0,0-2.24,7.82L23.822,92.2a5.759,5.759,0,0,0,7.821,2.24l77.7-43.094a5.752,5.752,0,0,0,2.24-7.82L89.82,4.3A5.755,5.755,0,0,0,84.781,1.337Z" transform="translate(3.281 3.136)" fill="#fff"/>
        <rect id="Rectangle_6469" data-name="Rectangle 6469" width="35.738" height="35.738" rx="12.597" transform="matrix(-0.874, 0.485, -0.485, -0.874, 53.708, 65.619)" fill="#fff"/>
        <g id="Group_26837" data-name="Group 26837" transform="translate(10.664 39.772)">
          <circle id="Ellipse_1589" data-name="Ellipse 1589" cx="13.726" cy="13.726" r="13.726" transform="translate(0 12.956) rotate(-28.161)" fill="url(#linear-gradient)"/>
          <path id="Path_72138" data-name="Path 72138" d="M1.6,2.64a.667.667,0,0,1-.567-.314A12.178,12.178,0,0,0,.151,1.092.668.668,0,0,1,1.186.245a13.365,13.365,0,0,1,.982,1.371.668.668,0,0,1-.212.921A.659.659,0,0,1,1.6,2.64Z" transform="translate(27.717 9.883)" fill="#fff"/>
          <path id="Path_72139" data-name="Path 72139" d="M.668,4.227A.668.668,0,0,1,.245,3.041a13.474,13.474,0,0,1,2-1.355,13.283,13.283,0,0,1,13.978.636.668.668,0,1,1-.751,1.106A11.953,11.953,0,0,0,2.892,2.854a12.194,12.194,0,0,0-1.8,1.22A.665.665,0,0,1,.668,4.227Z" transform="translate(9.866 5.229)" fill="#fff"/>
          <circle id="Ellipse_1590" data-name="Ellipse 1590" cx="11.617" cy="11.617" r="11.617" transform="translate(2.247 16.343) rotate(-35.744)" fill="#fff" opacity="0.78"/>
          <path id="Path_72140" data-name="Path 72140" d="M.426,5.161c.954,1.721,3.378,2.8,5.1,1.85s2.085-3.585,1.13-5.305A3.4,3.4,0,0,0,1.909.492,3.4,3.4,0,0,0,.426,5.161Z" transform="translate(12.798 11.711)" fill="url(#linear-gradient-2)"/>
          <path id="Path_72141" data-name="Path 72141" d="M11.85,5.285,4.246,9.5A2.1,2.1,0,0,1,1.784,9.2L.665,8.143a2.1,2.1,0,0,1-.158-2.9,16.206,16.206,0,0,1,9.63-5.2,2.1,2.1,0,0,1,2.406,1.57l.33,1.336A2.1,2.1,0,0,1,11.85,5.285Z" transform="translate(14.01 17.915)" fill="url(#linear-gradient-3)"/>
        </g>
        <path id="Path_72142" data-name="Path 72142" d="M5.941,26.182,39.627,7.5a4,4,0,0,0,1.557-5.438h0A4,4,0,0,0,35.747.5L2.061,19.187A4,4,0,0,0,.5,24.625h0A4,4,0,0,0,5.941,26.182Z" transform="translate(49.303 8.51)" fill="#fff"/>
      </g>
      <path id="Path_121" data-name="Path 121" d="M16.369,19.27a2.961,2.961,0,0,0,.371-4.161l-1.133-1.5a9.978,9.978,0,0,1-2.266-6.046c0-1.514-.952-5.856-2.457-5.484-1.324.19,0,5.484-1.324,5.294C9,7.368,6.7,3.56,5.029,1.322,4.076.189,2.382-.582,2.172.57c-.19.752-.952.752-1.7,1.324S.1,6.235.1,7.368c0,1.324-.381,1.695,1.5,3.809,1.514,1.695,7.941,5.856,7.941,5.856l2.856,1.9a2.761,2.761,0,0,0,3.885.448l.086-.067Z" transform="translate(71.449 94.204) rotate(-39)" fill="#fab9af"/>
      <path id="Path_122" data-name="Path 122" d="M4.723,13.465S31.383,39.173,37.6,41.23,61.776,6.286,64.985,2.506c5.294-6.418,16.815.19,14.739,11.9-2.457,14.74-37.782,43.447-42.124,43.8S0,19.1,0,19.1C.571,17.245,2.085,15.35,4.723,13.465Z" transform="translate(79.728 87.435) rotate(-39)" fill="#00aeef"/>
    </g>
    <g id="Group_25345" data-name="Group 25345" transform="translate(1462.446 312.895)">
      <path id="Path_5073" data-name="Path 5073" d="M371.37,81.635c.325,0,.487.325.487.649a5.238,5.238,0,0,0,1.3,3.408A5.536,5.536,0,0,0,377.7,87.8a2.749,2.749,0,0,1,2.272,1.461,4.206,4.206,0,0,0,1.623,1.785,5.373,5.373,0,0,0,5.194.325,6.353,6.353,0,0,0,1.623-1.3,4.568,4.568,0,0,1,3.409-1.623,5.843,5.843,0,0,0,3.571-1.136,5.1,5.1,0,0,0,1.785-4.22,5.922,5.922,0,0,0-.974-3.246,2.825,2.825,0,0,1-.812-2.435,4.09,4.09,0,0,0-.974-3.246,4.6,4.6,0,0,0-1.785-1.3,3.06,3.06,0,0,1-1.785-3.408,6.9,6.9,0,0,0,.325-1.785c.812-5.518-4.545-10.875-4.545-10.875h0a3.491,3.491,0,0,1-4.22-.974l-2.11-2.435a.46.46,0,0,0-.812,0,.714.714,0,0,0-.162.812l1.3,1.623a5.368,5.368,0,0,1,0,6.168,8.333,8.333,0,0,0-1.623,3.9,33.978,33.978,0,0,0-.162,3.9,4.259,4.259,0,0,1-2.759,4.382,10.379,10.379,0,0,1-6.655-.487,10.981,10.981,0,0,1-4.22-2.922l-2.6-3.246a.574.574,0,0,0-.812.812l1.3,1.623a2.834,2.834,0,0,1,.649,1.948C364.066,75.305,366.5,80.661,371.37,81.635Z" transform="translate(-337.236 -47.995)" fill="#32285f"/>
      <path id="Path_5074" data-name="Path 5074" d="M382.445,256.911,374,199.616s28.566-53.886,26.132-65.086S387.477,118.3,381.958,118.3s-11.362,5.843-12.5,10.225c0,0-15.744,58.918-13.8,71.253,1.623,10.55,18.179,55.834,23.048,68.981a9.189,9.189,0,0,1,.487,2.922h0a8.8,8.8,0,0,1-.974,4.058l-2.272,4.545a15.384,15.384,0,0,1-6.817,6.817c-.487.325-.974.487-1.461.812a1.478,1.478,0,0,0,.811,2.759H374a5.5,5.5,0,0,0,5.194-3.408,12.048,12.048,0,0,1,5.518-6.168l1.785-.812a6.559,6.559,0,0,0,1.948-8.278h0A35.621,35.621,0,0,1,382.445,256.911Z" transform="translate(-341.007 -7.401)" fill="#fab9af"/>
      <path id="Path_5075" data-name="Path 5075" d="M389.08,280.737l-1.3-7.791a46.793,46.793,0,0,1-.487-9.576c5.032-62.651,10.225-112.317,9.576-126.438a32.98,32.98,0,0,0-2.435-11.2c-7.629-18.016-21.912-12.985-23.373,20.775-.811,18.99,1.461,51.289,4.058,78.557,1.948,21.1,4.545,39.116,5.519,45.933A24.577,24.577,0,0,1,380.8,277h0l-1.136,7.3a20.75,20.75,0,0,1-.974,3.733c0,.325-.162.487-.162.812v.487a3.082,3.082,0,0,0,3.084,3.084h7.3a3.142,3.142,0,0,0,2.759-1.623,3.1,3.1,0,0,0,0-2.922A42.134,42.134,0,0,1,389.08,280.737Z" transform="translate(-331.412 -9.154)" fill="#fab9af"/>
      <path id="Path_5076" data-name="Path 5076" d="M411.072,196.651a8.22,8.22,0,0,1-8.116,7.142h-42.2a8.2,8.2,0,0,1-8.115-9.414l12.173-79.044s27.755-7.791,33.436-1.623C416.753,134,413.345,179.122,411.072,196.651Z" transform="translate(-342.854 -11.74)" fill="#182f43"/>
      <path id="Path_5077" data-name="Path 5077" d="M394.159,113.712c-5.681-6.168-33.436,1.623-33.436,1.623L359.1,126.372c49.829.162,35.708,63.949,28.242,77.421h11.686a8.22,8.22,0,0,0,8.116-7.142C409.253,179.122,412.662,134,394.159,113.712Z" transform="translate(-338.762 -11.74)" fill="#0b1726"/>
      <ellipse id="Ellipse_544" data-name="Ellipse 544" cx="15.582" cy="13.634" rx="15.582" ry="13.634" transform="translate(22.448 5.398)" fill="#32285f"/>
      <path id="Path_5078" data-name="Path 5078" d="M385.8,142.094l-9.739.325c-6.655.162-12.335-1.3-13.147-7.791L353.5,86.26c-.162-3.571,2.6-6.979,5.681-8.6,0,0,27.268-5.032,37.98.974l.812.325a9.729,9.729,0,0,1,5.032,8.115l-5.032,47.069C397.488,140.471,392.294,141.932,385.8,142.094Z" transform="translate(-342.254 -33.954)" fill="#434cb5"/>
      <path id="Path_5079" data-name="Path 5079" d="M399.325,79.5a13.541,13.541,0,0,1-1.3,1.948,28.962,28.962,0,0,0-5.356,16.231c-.162,5.032.325,10.388-1.136,13.8-1.948,4.058-8.765,4.058-12.173,1.136l-.162-.162a5.223,5.223,0,0,0-6.979-.325,11.26,11.26,0,0,1-15.419-.974l4.058,21.1c.649,6.655,6.492,8.115,13.147,7.791l9.738-.325c6.492-.162,11.524-1.623,12.173-8.115l5.032-47.069A10.209,10.209,0,0,0,399.325,79.5Z" transform="translate(-340.195 -31.577)" fill="#323e96"/>
      <path id="Path_5080" data-name="Path 5080" d="M371.614,92.428c-2.759,8.6-18.5,41.713-23.535,40.09s3.9-34.409,6.655-43.012,7.142-14.121,12.173-12.5C371.939,78.469,374.374,83.826,371.614,92.428Z" transform="translate(-346.57 -33.306)" fill="#434cb5"/>
      <path id="Path_5081" data-name="Path 5081" d="M374.839,92.046c1.461,8.765,13.634,43.174,18.828,42.2,5.194-.812-.162-33.922-1.623-42.687s-5.194-15.095-10.388-14.121C376.462,78.249,373.378,83.281,374.839,92.046Z" transform="translate(-329.181 -32.923)" fill="#434cb5"/>
      <path id="Path_5082" data-name="Path 5082" d="M399.353,108.188c-5.681-1.136-42.2-6.33-42.85-3.084s34.9,13.472,40.577,14.608,8.927-.974,9.576-4.22S405.2,109.324,399.353,108.188Z" transform="translate(-340.386 -16.279)" fill="#fa968c"/>
      <path id="Path_5083" data-name="Path 5083" d="M378.829,67.5H366.007a11.237,11.237,0,0,1,.649,5.681l-1.3,6.655c-.812,6.005,1.785,9.252,5.194,10.063a5.707,5.707,0,0,0,5.194-1.461c1.623-1.461,1.623-4.545,1.3-7.142l-.487-1.785C375.745,77.238,378.829,67.5,378.829,67.5Z" transform="translate(-334.957 -39.054)" fill="#fab9af"/>
      <path id="Path_5084" data-name="Path 5084" d="M378.522,67.5H365.7a11.237,11.237,0,0,1,.649,5.681l-.487,2.435a19.6,19.6,0,0,0,4.382,4.058,3.707,3.707,0,0,0,4.869-.162c.325-.325.649-.487.974-.812C375.925,75.453,378.522,67.5,378.522,67.5Z" transform="translate(-334.65 -39.054)" fill="#fa968c"/>
      <path id="Path_5085" data-name="Path 5085" d="M366.362,63.464c.162,1.948.162,4.545-1.461,4.707-1.785.162-3.733-3.408-3.9-5.356s.974-2.6,2.759-2.6C365.551,59.893,366.362,61.354,366.362,63.464Z" transform="translate(-337.584 -43.62)" fill="#fa968c"/>
      <path id="Path_5086" data-name="Path 5086" d="M375.326,63.464c-.162,1.948-.162,4.545,1.461,4.707,1.785.162,3.733-3.408,3.9-5.356s-.974-2.6-2.759-2.6C376.3,59.893,375.489,61.354,375.326,63.464Z" transform="translate(-328.695 -43.62)" fill="#fa968c"/>
      <path id="Path_5087" data-name="Path 5087" d="M386.072,67.745c0,8.765-5.843,14.932-9.252,17.692a3.909,3.909,0,0,1-4.869.162c-3.409-2.6-9.252-8.278-9.252-17.692,0-10.388,5.681-14.608,11.849-14.608C380.554,53.3,386.072,57.358,386.072,67.745Z" transform="translate(-336.519 -47.902)" fill="#fab9af"/>
      <path id="Path_5088" data-name="Path 5088" d="M372.541,69.827a1.886,1.886,0,0,1-2.11,2.11h0a1.8,1.8,0,0,1-1.623-1.948l.812-7.953c0-.325.162-.487.487-.812a1.24,1.24,0,0,1,.812-.325.767.767,0,0,1,.812.812Z" transform="translate(-332.726 -43.166)" fill="#fa968c"/>
      <path id="Path_5089" data-name="Path 5089" d="M388.707,55.7h0c1.136-1.461-1.785-6.005-6.817-4.707h0a8.675,8.675,0,0,1-5.356-.325,10.766,10.766,0,0,0-5.032-.649,6.707,6.707,0,0,0-5.518,3.571c-.487.325-.974.812-1.461,1.136-4.058,3.733-3.409,11.2-3.409,11.2h0a3.317,3.317,0,0,1,2.6,3.246v3.408a.7.7,0,0,0,.649.649.724.724,0,0,0,.649-.487l.162-2.11a5.369,5.369,0,0,1,3.9-4.869,9.2,9.2,0,0,0,3.733-1.948,21,21,0,0,0,2.6-2.922c.974-1.461,3.246-2.435,4.869-1.623a11.989,11.989,0,0,1,4.869,4.545,10.4,10.4,0,0,1,1.3,4.869V72.9a.649.649,0,1,0,1.3,0v-2.11a3.977,3.977,0,0,1,.649-1.948c2.11-2.759,3.733-8.44.649-12.173C388.545,56.346,388.545,56.022,388.707,55.7Z" transform="translate(-337.531 -49.974)" fill="#32285f"/>
      <path id="Path_5090" data-name="Path 5090" d="M400.8,108.23a17.749,17.749,0,0,0-2.435-5.032c-.974-1.136-5.356-.162-7.791.649a16.008,16.008,0,0,1-3.9.487c-9.576-.487-27.917-.162-32.137.649-5.681,1.136-8.6,5.681-7.791,8.765,1.136,5.032,4.22,6.168,9.9,5.032,4.058-.812,20.938-6.168,30.189-10.388a13.775,13.775,0,0,1,7.629-1.136Z" transform="translate(-346.54 -17.133)" fill="#fab9af"/>
      <path id="Path_72143" data-name="Path 72143" d="M250.146,267.7a4.378,4.378,0,1,1-1.278-3.1,4.377,4.377,0,0,1,1.278,3.1Z" transform="translate(-213.325 -247.623)" fill="none" stroke="#fff" stroke-miterlimit="10" stroke-width="0.3"/>
      <path id="Path_72144" data-name="Path 72144" d="M259.126,267.7a4.378,4.378,0,1,1-1.278-3.1A4.377,4.377,0,0,1,259.126,267.7Z" transform="translate(-211.009 -247.623)" fill="none" stroke="#fff" stroke-miterlimit="10" stroke-width="0.3"/>
      <path id="Path_72145" data-name="Path 72145" d="M248,268.306a1.786,1.786,0,0,1,3.573,0" transform="translate(-211.62 -246.795)" fill="none" stroke="#fff" stroke-linecap="round" stroke-miterlimit="10" stroke-width="0.3"/>
    </g>
  </g>
</svg>
